HIERARCHY
ROOT Hips
{
	OFFSET -0.001795 -0.223333 0.028219
	CHANNELS 6 Xposition Yposition Zposition Zrotation Yrotation Xrotation 
	JOINT LeftUpLeg
	{
		OFFSET 0.069520 -0.091406 -0.006815
		CHANNELS 3 Zrotation Yrotation Xrotation
		JOINT LeftLeg
		{
			OFFSET 0.034277 -0.375199 -0.004496
			CHANNELS 3 Zrotation Yrotation Xrotation
			JOINT LeftFoot
			{
				OFFSET -0.013596 -0.397961 -0.043693
				CHANNELS 3 Zrotation Yrotation Xrotation
				JOINT LeftToe
				{
					OFFSET 0.026358 -0.055791 0.119288
					CHANNELS 3 Zrotation Yrotation Xrotation
					End Site
					{
						OFFSET 0.000000 0.000000 0.000000
					}
				}
			}
		}
	}
	JOINT RightUpLeg
	{
		OFFSET -0.067670 -0.090522 -0.004320
		CHANNELS 3 Zrotation Yrotation Xrotation
		JOINT RightLeg
		{
			OFFSET -0.038290 -0.382569 -0.008850
			CHANNELS 3 Zrotation Yrotation Xrotation
			JOINT RightFoot
			{
				OFFSET 0.015774 -0.398415 -0.042312
				CHANNELS 3 Zrotation Yrotation Xrotation
				JOINT RightToe
				{
					OFFSET -0.025372 -0.048144 0.123348
					CHANNELS 3 Zrotation Yrotation Xrotation
					End Site
					{
						OFFSET 0.000000 0.000000 0.000000
					}
				}
			}
		}
	}
	JOINT Spine
	{
		OFFSET -0.002533 0.108963 -0.026696
		CHANNELS 3 Zrotation Yrotation Xrotation
		JOINT Spine1
		{
			OFFSET 0.005487 0.135180 0.001092
			CHANNELS 3 Zrotation Yrotation Xrotation
			JOINT Spine2
			{
				OFFSET 0.001457 0.052922 0.025425
				CHANNELS 3 Zrotation Yrotation Xrotation
				JOINT Neck
				{
					OFFSET -0.002778 0.213870 -0.042857
					CHANNELS 3 Zrotation Yrotation Xrotation
					JOINT Head
					{
						OFFSET 0.005152 0.064970 0.051349
						CHANNELS 3 Zrotation Yrotation Xrotation
						End Site
						{
							OFFSET 0.000000 0.000000 0.000000
						}
					}
				}
				JOINT LeftShoulder
				{
					OFFSET 0.078845 0.121749 -0.034090
					CHANNELS 3 Zrotation Yrotation Xrotation
					JOINT LeftArm
					{
						OFFSET 0.090977 0.030469 -0.008868
						CHANNELS 3 Zrotation Yrotation Xrotation
						JOINT LeftForeArm
						{
							OFFSET 0.259612 -0.012772 -0.027456
							CHANNELS 3 Zrotation Yrotation Xrotation
							JOINT LeftHand
							{
								OFFSET 0.249234 0.008986 -0.001171
								CHANNELS 3 Zrotation Yrotation Xrotation
								End Site
								{
									OFFSET 0.000000 0.000000 0.000000
								}
							}
						}
					}
				}
				JOINT RightShoulder
				{
					OFFSET -0.081759 0.118833 -0.038615
					CHANNELS 3 Zrotation Yrotation Xrotation
					JOINT RightArm
					{
						OFFSET -0.096012 0.032551 -0.009143
						CHANNELS 3 Zrotation Yrotation Xrotation
						JOINT RightForeArm
						{
							OFFSET -0.253742 -0.013329 -0.021401
							CHANNELS 3 Zrotation Yrotation Xrotation
							JOINT RightHand
							{
								OFFSET -0.255298 0.007772 -0.005559
								CHANNELS 3 Zrotation Yrotation Xrotation
								End Site
								{
									OFFSET 0.000000 0.000000 0.000000
								}
							}
						}
					}
				}
			}
		}
	}
}
MOTION
Frames: 11
Frame Time: 0.050000
0.000000 1.033956 0.000000 -2.091675 -2.224206 2.037131 5.669939 0.159328 4.926391 4.216527 2.561865 -37.803915 -4.033316 17.148687 96.454813 0.000000 0.000000 0.000000 -5.059034 0.378385 -3.897685 1.217713 -0.703869 -24.807929 -18.410752 -22.865056 98.876086 0.000000 0.000000 0.000000 7.089883 0.556834 -6.097230 -8.643832 0.357199 -76.253537 5.312224 -1.106972 96.976135 13.936623 1.358538 -104.789213 0.000000 0.000000 0.000000 -11.274625 0.839605 1.712009 -42.683872 -19.399532 -14.536579 -9.943438 49.922708 0.227341 0.000000 0.000000 0.000000 15.988698 -4.054224 0.944526 44.099603 12.749380 -16.145890 -12.730239 -45.445851 10.432036 0.000000 0.000000 0.000000 
0.000672 1.024341 -0.001620 -2.354317 -1.940724 1.980120 7.043563 0.182869 7.915605 3.823175 2.869483 -42.854762 3.993622 19.624822 102.486283 0.000000 0.000000 0.000000 -4.964723 0.425927 -4.794027 1.790173 -0.621139 -22.313596 -28.115673 -26.225793 97.474051 0.000000 0.000000 0.000000 7.607091 0.547810 -5.855349 -4.154036 1.294245 -73.480392 1.183475 5.519530 95.299407 31.212101 0.764397 -103.626793 0.000000 0.000000 0.000000 -5.244246 4.874556 -1.577452 -39.645180 -10.293055 -15.905796 -5.656749 50.904992 0.372584 0.000000 0.000000 0.000000 16.574745 -8.825617 -1.216339 37.609167 9.228107 -15.310254 -22.260355 -45.917419 14.155056 0.000000 0.000000 0.000000 
0.002078 1.025963 -0.003786 -1.656760 -2.478992 1.235521 6.823250 0.252975 8.544424 4.616201 3.395892 -45.004091 -6.878941 17.890653 105.310407 0.000000 0.000000 0.000000 -6.813210 0.328721 -2.823273 1.900319 -0.624408 -26.571584 -26.109454 -24.469239 103.061904 0.000000 0.000000 0.000000 6.842872 0.247180 -3.075295 -8.909414 -0.361805 -96.855720 5.026382 -1.037026 119.838024 26.850267 0.854653 -109.222709 0.000000 0.000000 0.000000 2.554130 4.083924 -4.320876 -38.193325 -4.155673 -21.634985 26.996522 59.659177 22.015158 0.000000 0.000000 0.000000 9.051844 -9.815179 -2.893285 29.137967 2.062599 -18.407713 -36.115737 -47.271114 18.734925 0.000000 0.000000 0.000000 
0.003986 1.036492 -0.008156 -2.762447 -4.504605 2.276930 8.834665 0.047580 4.014547 7.177768 3.797178 -39.612828 -11.528356 18.255567 107.482273 0.000000 0.000000 0.000000 -5.756221 0.502344 -5.718553 1.517774 -0.518153 -24.606725 -26.045992 -24.009771 102.721128 0.000000 0.000000 0.000000 7.781246 0.508387 -5.151433 -4.033848 2.233431 -91.293383 3.619464 5.401076 118.557057 39.465131 1.411627 -110.902801 0.000000 0.000000 0.000000 8.112075 9.969692 -8.759604 -32.470639 6.002342 -21.044651 57.606632 50.767933 33.703173 0.000000 0.000000 0.000000 5.513807 -9.728528 -4.022766 23.547930 -4.879208 -16.098711 -41.678959 -44.756694 18.181869 0.000000 0.000000 0.000000 
0.006949 1.055864 -0.012217 -1.832431 -4.424385 1.624839 8.708475 -0.007813 0.682099 5.995136 2.425787 -30.907318 -11.971387 17.897177 105.793236 0.000000 0.000000 0.000000 -6.363298 0.578296 -7.601151 -0.579493 -0.700779 -21.642702 -17.815464 -21.487773 104.240135 0.000000 0.000000 0.000000 6.138594 0.245205 -3.100535 -9.659860 0.254179 -92.693198 6.727342 -0.953554 119.604030 38.378577 2.123539 -114.507704 0.000000 0.000000 0.000000 15.375534 12.764357 -13.647475 -23.171286 17.869553 -17.433820 66.840373 34.243255 24.443371 0.000000 0.000000 0.000000 0.796190 -15.016203 -8.330163 14.829536 -14.754105 -12.675445 -45.030967 -32.419419 11.369716 0.000000 0.000000 0.000000 
0.010541 1.079850 -0.016100 -1.994783 -6.616063 1.432279 8.935556 0.018855 -1.410577 7.535013 1.963264 -24.489445 -19.238906 15.507066 99.756236 0.000000 0.000000 0.000000 -5.884962 0.732919 -9.617864 -1.728965 -0.625280 -18.663832 -15.740774 -20.116774 105.269764 0.000000 0.000000 0.000000 6.194020 0.316880 -3.554130 -6.740786 2.176373 -91.029768 5.112974 2.217640 119.440896 40.038245 2.227791 -114.452334 0.000000 0.000000 0.000000 20.304125 14.938419 -16.763311 -10.088702 30.586419 -11.547302 66.484356 20.080506 10.726854 0.000000 0.000000 0.000000 -4.765741 -15.398311 -10.408941 6.196730 -23.925513 -8.501199 -44.993428 -24.652012 6.324666 0.000000 0.000000 0.000000 
0.013579 1.094600 -0.019293 -2.017051 -7.855068 1.879464 9.483090 0.039736 -3.766504 7.446371 1.473554 -20.540367 -22.466855 13.605603 95.602574 0.000000 0.000000 0.000000 -4.796074 0.823615 -10.033141 -2.779273 -0.641124 -18.268530 -13.436457 -19.176462 104.606538 0.000000 0.000000 0.000000 5.478904 0.438769 -4.875429 -6.812882 2.439180 -90.049208 5.906942 1.456499 121.632639 47.170623 3.256381 -116.888596 0.000000 0.000000 0.000000 22.462289 17.097683 -20.319294 5.606518 39.890425 -4.872413 61.369916 4.367377 -1.438342 0.000000 0.000000 0.000000 -5.374591 -17.505441 -11.968737 -3.066713 -31.918892 -5.622419 -43.748382 -18.832787 1.697199 0.000000 0.000000 0.000000 
0.016195 1.093007 -0.020152 -2.122200 -7.638486 1.858956 8.756889 -0.007637 -4.251058 9.463642 1.674006 -20.911824 -23.217048 12.485732 93.563706 0.000000 0.000000 0.000000 -4.540964 0.796694 -9.560524 -3.043826 -0.715938 -19.766186 -13.724196 -19.383286 104.188641 0.000000 0.000000 0.000000 4.035304 0.535392 -6.487008 -5.725845 2.574354 -86.498165 5.187983 1.361035 120.779956 58.122373 4.690986 -117.051299 0.000000 0.000000 0.000000 23.866143 20.843076 -23.059080 21.429293 41.739244 4.310366 60.095137 -3.331502 -8.842351 0.000000 0.000000 0.000000 -4.847381 -17.678964 -11.707706 -11.701018 -38.388567 -2.629503 -45.391770 -18.550882 -0.637025 0.000000 0.000000 0.000000 
0.018957 1.073699 -0.019542 -2.565670 -7.438355 2.249142 9.049320 -0.005081 -4.532898 9.378127 1.821759 -21.960205 -20.264957 14.325092 96.195931 0.000000 0.000000 0.000000 -4.406710 0.705480 -8.189975 -3.041620 -0.842626 -23.636677 -17.962995 -20.526620 104.881499 0.000000 0.000000 0.000000 4.650025 0.663218 -7.483979 -1.848823 3.437163 -84.330130 5.358766 5.966419 121.604730 73.089571 6.409640 -118.074496 0.000000 0.000000 0.000000 25.326345 22.607744 -24.475984 31.766933 40.400240 9.423276 59.444688 1.138980 -10.205513 0.000000 0.000000 0.000000 -2.711146 -18.886793 -12.365479 -20.394445 -46.514733 -1.957698 -47.201639 -16.493161 -1.905341 0.000000 0.000000 0.000000 
0.022058 1.049825 -0.017167 -2.668002 -3.783762 2.625946 8.640939 -0.118438 -3.884777 8.082669 1.753771 -23.405280 -13.605606 14.805914 95.482542 0.000000 0.000000 0.000000 -4.918770 0.434558 -4.514183 -4.577985 -1.541661 -29.193047 -23.450620 -22.798532 106.742203 0.000000 0.000000 0.000000 3.242962 0.566763 -8.036104 -13.344449 -1.104073 -85.217688 7.627947 -8.891475 121.258344 58.729019 7.185293 -120.264902 0.000000 0.000000 0.000000 22.130706 24.250236 -25.804303 34.189787 39.587487 10.930538 57.618438 3.210183 -8.037305 0.000000 0.000000 0.000000 -6.907381 -16.824134 -11.495199 -28.115710 -50.439713 0.617280 -44.973956 -14.036105 -3.237873 0.000000 0.000000 0.000000 
0.025474 1.050496 -0.018259 -3.271214 0.023235 3.761685 9.163563 -0.230994 -4.835932 5.652320 1.468619 -24.856471 -5.336124 16.122740 95.294958 0.000000 0.000000 0.000000 -5.388636 0.406053 -4.580506 -5.444499 -2.002396 -29.177036 -19.556165 -23.101240 105.537161 0.000000 0.000000 0.000000 0.600042 0.441392 -9.811859 -6.925413 -0.063740 -80.217911 4.105922 -6.073121 116.481819 48.170378 7.430332 -121.469246 0.000000 0.000000 0.000000 19.163626 23.876114 -22.398505 27.322984 34.806339 9.811373 54.918561 13.498571 -3.001261 0.000000 0.000000 0.000000 -6.602009 -17.251145 -11.627253 -28.409839 -46.659708 4.895645 -41.586455 -15.810516 -2.057007 0.000000 0.000000 0.000000 
